<svg width="278" height="787" viewBox="0 0 278 787" fill="none" xmlns="http://www.w3.org/2000/svg">
<rect x="15" y="167.935" width="248" height="549" rx="65" stroke="#34A853" stroke-width="30"/>
<line x1="27" y1="243.935" x2="248" y2="243.935" stroke="#34A853" stroke-width="30"/>
<line x1="27" y1="643.935" x2="248" y2="643.935" stroke="#34A853" stroke-width="30"/>
<line x1="82" y1="640.935" x2="82" y2="258.935" stroke="#34A853" stroke-width="30"/>
<line x1="193" y1="241.822" x2="196" y2="640.822" stroke="#34A853" stroke-width="30"/>
<line x1="135.002" y1="168.671" x2="136.002" y2="111.737" stroke="#34A853" stroke-width="30"/>
<mask id="path-7-outside-1_6_20" maskUnits="userSpaceOnUse" x="35" y="0" width="195" height="143" fill="black">
<rect fill="white" x="35" width="195" height="143"/>
<path fill-rule="evenodd" clip-rule="evenodd" d="M137.886 90.5605C138.173 90.4718 138.472 90.4267 138.772 90.4267H196.5C198.157 90.4267 199.5 89.0835 199.5 87.4267V71.5134V55.5997C199.5 53.9429 198.157 52.5997 196.5 52.5997H138.771C138.47 52.5997 138.172 52.5546 137.885 52.4659L68.886 31.1359C66.9561 30.5393 65 31.982 65 34.0021V109.025C65 111.045 66.9561 112.488 68.886 111.891L137.886 90.5605Z"/>
</mask>
<path d="M68.886 111.891L60.0257 83.2293L68.886 111.891ZM137.885 52.4659L146.745 23.8042L137.885 52.4659ZM196.5 60.4267H138.772V120.427H196.5V60.4267ZM169.5 71.5134V87.4267H229.5V71.5134H169.5ZM169.5 55.5997V71.5134H229.5V55.5997H169.5ZM138.771 82.5997H196.5V22.5997H138.771V82.5997ZM146.745 23.8042L77.7464 2.47418L60.0257 59.7976L129.024 81.1276L146.745 23.8042ZM35 34.0021V109.025H95V34.0021H35ZM77.7464 140.553L146.747 119.222L129.026 61.8988L60.0257 83.2293L77.7464 140.553ZM35 109.025C35 131.246 56.5169 147.116 77.7464 140.553L60.0257 83.2293C77.3953 77.8597 95 90.8442 95 109.025H35ZM138.771 22.5997C141.474 22.5997 144.162 23.0058 146.745 23.8042L129.024 81.1276C132.181 82.1035 135.467 82.5997 138.771 82.5997V22.5997ZM229.5 55.5997C229.5 37.3744 214.725 22.5997 196.5 22.5997V82.5997C181.588 82.5997 169.5 70.5114 169.5 55.5997H229.5ZM138.772 60.4267C135.468 60.4267 132.183 60.9229 129.026 61.8988L146.747 119.222C144.164 120.021 141.476 120.427 138.772 120.427V60.4267ZM77.7464 2.47418C56.517 -4.0886 35 11.7812 35 34.0021H95C95 52.1828 77.3952 65.1671 60.0257 59.7976L77.7464 2.47418ZM196.5 120.427C214.725 120.427 229.5 105.652 229.5 87.4267H169.5C169.5 72.515 181.588 60.4267 196.5 60.4267V120.427Z" fill="#34A853" mask="url(#path-7-outside-1_6_20)"/>
<path d="M125 771.935C125 780.219 131.716 786.935 140 786.935C148.284 786.935 155 780.219 155 771.935H125ZM125 701.935V771.935H155V701.935H125Z" fill="#34A853"/>
</svg>
